<svg xmlns="http://www.w3.org/2000/svg" viewBox="0 0 1081.09 491.33"><defs><style>.cls-1{fill:none;}.cls-2{fill:#f7b833;}.cls-3{fill:#00a79c;}.cls-4{fill:#fff;}</style></defs><g id="Layer_2" data-name="Layer 2"><g id="Layer_1-2" data-name="Layer 1"><line class="cls-1" x1="991.11" x2="991.11" y2="490.21"/><line class="cls-1" x1="1081.09" x2="1081.09" y2="490.21"/><line class="cls-1" x1="90.69" x2="90.69" y2="490.21"/><line class="cls-1" x1="0.71" x2="0.71" y2="490.21"/><line class="cls-1" y1="92.72" x2="1080.51" y2="92.72"/><line class="cls-1" y1="0.32" x2="1080.51" y2="0.32"/><line class="cls-1" x1="1080.51" y1="398.92" y2="398.92"/><line class="cls-1" x1="1080.51" y1="491.33" y2="491.33"/><rect class="cls-2" x="358.6" y="108.83" width="56.1" height="32.17" transform="translate(24.92 309.99) rotate(-45)"/><path class="cls-3" d="M311.11,180.56q-21.33-16.08-56.21-18.8l-66-5.41V274.71q-9.75-1.48-21-3.91h0a181.75,181.75,0,0,1-59.94-26.53l-17.25,25c35.3,24.38,72.39,33.2,98.18,36.25v92.94H221V308l3.05,0q31.49,0,52.48-7.12t33.19-19a69.39,69.39,0,0,0,17.43-26.58,87.69,87.69,0,0,0,5.25-29.63Q332.44,196.65,311.11,180.56Zm-14.05,65.86a39,39,0,0,1-11.34,15.91q-8.13,7.11-23.2,11.17t-38.43,4.07l-3.05,0V189.63l29.8,2.61q24.37,2,36.91,10.33t12.53,25.56A53,53,0,0,1,297.06,246.42Zm58.39-66.37h32.17V330.73H355.45Zm156.6-21q9,1,14.39,1.69V191.9q-4.74-.68-14.39-1.69a185,185,0,0,0-19.47-1q-24,0-36.57,13T443.48,241v10.16q0,24.72,12.53,38.26T492.58,303a185,185,0,0,0,19.47-1q9.66-1,14.39-1.7v31.16q-5.41.68-14.56,1.69a161.61,161.61,0,0,1-17.94,1q-27.43,0-46.05-10A63.59,63.59,0,0,1,420,294.5q-9.31-19.63-9.31-48.42T420,197.66A63.59,63.59,0,0,1,447.89,168q18.62-10,46.05-10A160.2,160.2,0,0,1,512.05,159.06Zm162.36,21q13.22,13.89,13.21,36.57a127.18,127.18,0,0,1-2.37,23.19,196.14,196.14,0,0,1-8.8,30.31L641.27,368H671.7v30.47H597.89L643.26,269.1a291,291,0,0,0,9.32-31q2.86-12.7,2.87-19.81,0-11.51-6.94-17.1t-20.15-6.6l-47.4-4V330.73H548.79V93.7h94.13v30.48H581V159.4L629,163.46Q661.2,166.18,674.41,180.05Zm196.74,120.2v30.48H812.57V254.21H764.82a61.94,61.94,0,0,0-18.28,2.7,30.53,30.53,0,0,0-14.22,8.81q-5.43,6.09-5.42,16.25,0,9.82,5.76,15.74t14.9,5.93q9.81,0,14.73-6.09a21.15,21.15,0,0,0,4.9-13.55,20.26,20.26,0,0,0-.5-4.57,27,27,0,0,0-1.53-4.57h31.49a34,34,0,0,1,1,5.93c.22,2.36.34,4.79.34,7.28a43.4,43.4,0,0,1-6.77,24,45.88,45.88,0,0,1-18.12,16.25,55.66,55.66,0,0,1-25.56,5.76,54.86,54.86,0,0,1-26.92-6.61,48.82,48.82,0,0,1-19-18.45A52.57,52.57,0,0,1,694.73,282q0-19.31,9.82-31.83a58.89,58.89,0,0,1,25.23-18.62,87.82,87.82,0,0,1,32.67-6.1h50.12V212.55q0-11.84-5.59-16.25t-18.45-4.4H713V161.42h73.81q30.48,0,44.19,14.22t13.72,35.22v89.39Z"/><rect class="cls-2" x="901.14" y="161.42" width="89.97" height="92.4"/><path class="cls-4" d="M915.23,227.36l16.62-39.47H942l16.63,39.47h-7.85l-3.33-8.28H926.37l-3.3,8.28Zm13.87-14.83h15.66l-7.84-19.44Zm38.57-24.64h7.43v39.47h-7.43Z"/><rect class="cls-1" x="0.71" y="207.35" width="89.97" height="92.4"/><rect class="cls-1" x="991.11" y="207.35" width="89.97" height="92.4"/><rect class="cls-1" x="527.67" y="0.32" width="89.97" height="92.4"/><rect class="cls-1" x="527.67" y="398.92" width="89.97" height="92.4"/></g></g></svg>
